<svg xmlns="http://www.w3.org/2000/svg" xmlns:svg="http://www.w3.org/2000/svg" xmlns:xlink="http://www.w3.org/1999/xlink" id="svg2" width="5000" height="5000" version="1.1" viewBox="0 0 5000 5000"><defs id="defs4"><path id="SVGID_1_" d="M34,15.167c0,0-7.333,5.833-9.333,6C22.667,21.333,14,27,14,27l-5.667-0.166L2,19.667l8.667,64.752h100.581 l-70.51-70.51L34,15.167z"/><filter id="Adobe_OpacityMaskFilter" width="109.248" height="70.51" x="2" y="13.909" filterUnits="userSpaceOnUse"><feColorMatrix id="feColorMatrix1326" type="matrix" values="1 0 0 0 0 0 1 0 0 0 0 0 1 0 0 0 0 0 1 0"/></filter><path id="SVGID_6_" d="M18.692,15.471h3.947v-3.866h-3.947V15.471z M4.164,15.47h3.947v-3.866H4.164V15.47z M8.111,11.604h0.002 H8.111z M9.008,15.47h3.947v-3.866H9.008V15.47z M13.851,15.47h3.946v-3.866h-3.946V15.47z M23.535,15.47h3.946v-3.866h-3.946 V15.47z M7.588,22.131c0-1.129,0.936-2.046,2.087-2.046c1.151,0,2.089,0.917,2.089,2.046c0,1.127-0.937,2.046-2.089,2.046 C8.526,24.177,7.588,23.258,7.588,22.131 M32.206,9.347c-0.835,0.948-1.084,2.522-0.97,3.731c0.084,0.89,0.369,1.791,0.928,2.506 c-0.425,0.25-0.908,0.447-1.338,0.591c-0.874,0.289-1.825,0.45-2.75,0.45H2.111l-0.056,0.589c-0.184,1.955,0.089,3.911,0.915,5.7 l0.354,0.711l0.041,0.066c2.443,4.063,6.729,5.774,11.402,5.774c9.046,0,16.507-3.957,19.933-12.318 c2.289,0.115,4.631-0.547,5.752-2.689l0.286-0.549l-0.542-0.305c-1.327-0.749-3.091-0.853-4.594-0.418v0.001 c-0.186-1.567-1.235-2.939-2.484-3.922l-0.495-0.389L32.206,9.347z M9.008,10.512h3.947V6.645H9.008V10.512z M13.851,10.512h3.946 V6.645h-3.946V10.512z M18.692,10.512h3.947V6.645h-3.947V10.512z M18.692,5.554h3.947V1.687h-3.947V5.554z"/></defs><metadata id="metadata7"/><g id="layer1" transform="translate(2386.9101,-3798.7827)"><circle id="path864" cx="113.09" cy="6298.783" r="2500" style="fill:#0db7ed;fill-opacity:1"/><circle id="path4304-4-6" cx="2523.117" cy="-317.938" r="0" style="fill:#000;fill-opacity:1;stroke:none;stroke-width:2;stroke-linecap:square;stroke-linejoin:miter;stroke-miterlimit:4;stroke-dasharray:none;stroke-opacity:1"/><circle id="path4304-4-2" cx="320.26" cy="862.347" r="0" style="fill:#000;fill-opacity:1;stroke:none;stroke-width:2;stroke-linecap:square;stroke-linejoin:miter;stroke-miterlimit:4;stroke-dasharray:none;stroke-opacity:1"/><circle id="path4304-4-0" cx="2523.117" cy="862.347" r="0" style="fill:#000;fill-opacity:1;stroke:none;stroke-width:2;stroke-linecap:square;stroke-linejoin:miter;stroke-miterlimit:4;stroke-dasharray:none;stroke-opacity:1"/><circle id="path4304-4-0-6" cx="1385.974" cy="2456.347" r="0" style="fill:#000;fill-opacity:1;stroke:none;stroke-width:2;stroke-linecap:square;stroke-linejoin:miter;stroke-miterlimit:4;stroke-dasharray:none;stroke-opacity:1"/><circle id="path4304-4-9-6" cx="2458.947" cy="2162.248" r="0" style="fill:#000;fill-opacity:1;stroke:none;stroke-width:2;stroke-linecap:square;stroke-linejoin:miter;stroke-miterlimit:4;stroke-dasharray:none;stroke-opacity:1"/><circle id="path4304-4-9-0" cx="2475.435" cy="-339.3" r="0" style="fill:#000;fill-opacity:1;stroke:none;stroke-width:2;stroke-linecap:square;stroke-linejoin:miter;stroke-miterlimit:4;stroke-dasharray:none;stroke-opacity:1"/><g id="g1358" transform="matrix(64.536443,0,0,64.536443,-1265.9957,5293.5631)"><defs id="defs1351"><path id="path1392" d="m 18.692,15.471 h 3.947 V 11.605 H 18.692 Z M 4.164,15.47 H 8.111 V 11.604 H 4.164 Z m 3.947,-3.866 h 0.002 z m 0.897,3.866 h 3.947 V 11.604 H 9.008 Z m 4.843,0 h 3.946 v -3.866 h -3.946 z m 9.684,0 h 3.946 V 11.604 H 23.535 Z M 7.588,22.131 c 0,-1.129 0.936,-2.046 2.087,-2.046 1.151,0 2.089,0.917 2.089,2.046 0,1.127 -0.937,2.046 -2.089,2.046 -1.149,0 -2.087,-0.919 -2.087,-2.046 M 32.206,9.347 c -0.835,0.948 -1.084,2.522 -0.97,3.731 0.084,0.89 0.369,1.791 0.928,2.506 -0.425,0.25 -0.908,0.447 -1.338,0.591 -0.874,0.289 -1.825,0.45 -2.75,0.45 H 2.111 l -0.056,0.589 c -0.184,1.955 0.089,3.911 0.915,5.7 l 0.354,0.711 0.041,0.066 c 2.443,4.063 6.729,5.774 11.402,5.774 9.046,0 16.507,-3.957 19.933,-12.318 2.289,0.115 4.631,-0.547 5.752,-2.689 l 0.286,-0.549 -0.542,-0.305 c -1.327,-0.749 -3.091,-0.853 -4.594,-0.418 v 10e-4 C 35.416,11.62 34.367,10.248 33.118,9.265 L 32.623,8.876 Z M 9.008,10.512 h 3.947 V 6.645 H 9.008 Z m 4.843,0 h 3.946 V 6.645 h -3.946 z m 4.841,0 h 3.947 V 6.645 h -3.947 z m 0,-4.958 h 3.947 V 1.687 h -3.947 z"/></defs><clipPath id="SVGID_7_"><use id="use1353" width="100%" height="100%" x="0" y="0" overflow="visible" xlink:href="#SVGID_6_" style="overflow:visible"/></clipPath><rect id="rect1356" width="48.738" height="37.778" x="-3" y="-3.313" clip-path="url(#SVGID_7_)" style="fill:#fff"/></g></g><style id="style1118" type="text/css"/></svg>